<?xml version="1.0" standalone="no"?>
<!DOCTYPE svg PUBLIC "-//W3C//DTD SVG 20010904//EN"
 "http://www.w3.org/TR/2001/REC-SVG-20010904/DTD/svg10.dtd">
<svg version="1.0" xmlns="http://www.w3.org/2000/svg"
 width="512.000000pt" height="512.000000pt" viewBox="0 0 512.000000 512.000000"
 preserveAspectRatio="xMidYMid meet">

<g transform="translate(0.000000,512.000000) scale(0.100000,-0.100000)"
fill="#000000" stroke="none">
<path d="M2435 4893 c-80 -24 -1828 -1009 -1889 -1065 -60 -53 -99 -119 -121
-203 -23 -89 -23 -2041 0 -2130 22 -84 61 -150 121 -203 65 -59 1811 -1042
1893 -1066 70 -20 172 -20 242 0 82 24 1828 1007 1893 1066 60 53 99 119 121
203 23 89 23 2041 0 2130 -30 115 -101 207 -205 267 -475 274 -1760 986 -1803
1000 -71 22 -182 23 -252 1z m373 -1127 c175 -38 345 -115 481 -216 89 -66
257 -238 245 -249 -5 -5 -107 -65 -227 -134 l-219 -126 -41 40 c-87 83 -194
141 -328 175 -48 12 -93 15 -189 11 -138 -5 -219 -27 -328 -88 -79 -45 -220
-189 -264 -269 -120 -220 -120 -480 0 -700 46 -85 186 -225 272 -273 267 -148
611 -108 826 95 l51 48 219 -126 c120 -70 223 -130 227 -134 13 -11 -158 -186
-244 -250 -140 -104 -327 -186 -504 -221 -41 -8 -133 -14 -225 -14 -169 0
-243 11 -383 56 -364 118 -668 423 -786 787 -45 139 -56 214 -56 382 0 168 11
243 56 382 76 234 237 456 440 608 144 107 341 193 509 220 41 6 82 13 90 15
38 10 312 -5 378 -19z m982 -796 l0 -100 100 0 100 0 0 100 0 100 105 0 105 0
0 -100 0 -99 103 -3 102 -3 0 -100 0 -100 -102 -3 -103 -3 0 -99 0 -99 103 -3
102 -3 0 -100 0 -100 -102 -3 -103 -3 0 -99 0 -100 -105 0 -105 0 0 100 0 100
-100 0 -100 0 0 -100 0 -100 -105 0 -105 0 0 100 0 100 -100 0 -100 0 0 105 0
105 100 0 100 0 0 100 0 100 -100 0 -100 0 0 105 0 105 100 0 100 0 0 100 0
100 105 0 105 0 0 -100z"/>
<path d="M3790 2560 l0 -100 100 0 100 0 0 100 0 100 -100 0 -100 0 0 -100z"/>
</g>
</svg>
